<svg width="352" height="383" viewBox="0 0 352 383" fill="none" xmlns="http://www.w3.org/2000/svg">
<g id="Group 18">
<g id="Group 26">
<rect id="Rectangle" x="29.5425" y="23.7584" width="141.331" height="293.053" rx="22" fill="url(#paint0_linear)"/>
<path id="Blogr" fill-rule="evenodd" clip-rule="evenodd" d="M84.317 177.947V159.547H87.8194V177.947H84.317ZM69.0317 177.947V160.434H75.4861C76.6869 160.434 77.7251 160.619 78.6007 160.989C79.4763 161.359 80.1517 161.886 80.6271 162.568C81.1024 163.25 81.34 164.052 81.34 164.973C81.34 165.811 81.1566 166.547 80.7897 167.18C80.4227 167.813 79.9057 168.311 79.2386 168.673C80.1392 169.018 80.8397 169.565 81.34 170.313C81.8404 171.061 82.0905 171.945 82.0905 172.964C82.0905 173.984 81.8237 174.863 81.29 175.603C80.7563 176.343 80.0058 176.919 79.0385 177.33C78.0712 177.741 76.9287 177.947 75.6112 177.947H69.0317ZM72.6342 163.468V167.489H75.0858C75.903 167.489 76.5326 167.32 76.9746 166.983C77.4166 166.646 77.6375 166.149 77.6375 165.491C77.6375 164.833 77.4166 164.332 76.9746 163.986C76.5326 163.641 75.903 163.468 75.0858 163.468H72.6342ZM75.4361 174.913H72.6342V170.325H75.4361C76.37 170.325 77.0913 170.522 77.6 170.917C78.1087 171.312 78.363 171.879 78.363 172.619C78.363 173.359 78.1087 173.926 77.6 174.321C77.0913 174.715 76.37 174.913 75.4361 174.913ZM94.2487 177.799C95.0826 178.144 95.9916 178.317 96.9756 178.317C97.9763 178.317 98.8977 178.144 99.7399 177.799C100.582 177.453 101.316 176.968 101.941 176.343C102.567 175.719 103.055 174.987 103.405 174.148C103.755 173.31 103.93 172.397 103.93 171.41C103.93 170.424 103.759 169.515 103.417 168.685C103.076 167.855 102.596 167.131 101.979 166.514C101.362 165.898 100.636 165.417 99.8025 165.071C98.9686 164.726 98.0596 164.554 97.0756 164.554C96.075 164.554 95.1535 164.726 94.3113 165.071C93.469 165.417 92.7352 165.902 92.1098 166.527C91.4844 167.152 90.9965 167.879 90.6463 168.71C90.2961 169.54 90.121 170.448 90.121 171.435C90.121 172.422 90.2919 173.334 90.6338 174.173C90.9757 175.011 91.4552 175.739 92.0723 176.356C92.6894 176.972 93.4148 177.453 94.2487 177.799ZM97.0256 175.209C97.6594 175.209 98.2264 175.044 98.7268 174.715C99.2271 174.387 99.6232 173.939 99.9151 173.371C100.207 172.804 100.353 172.159 100.353 171.435C100.353 170.712 100.207 170.066 99.9151 169.499C99.6232 168.932 99.2271 168.483 98.7268 168.155C98.2264 167.826 97.6594 167.661 97.0256 167.661C96.3918 167.661 95.8248 167.826 95.3245 168.155C94.8241 168.483 94.428 168.932 94.1362 169.499C93.8443 170.066 93.6984 170.712 93.6984 171.435C93.6984 172.159 93.8443 172.804 94.1362 173.371C94.428 173.939 94.8241 174.387 95.3245 174.715C95.8248 175.044 96.3918 175.209 97.0256 175.209ZM109.321 177.083C110.047 177.412 110.827 177.577 111.66 177.577C112.494 177.577 113.257 177.408 113.95 177.071C114.642 176.734 115.213 176.269 115.663 175.677V176.738C115.663 177.429 115.53 178.033 115.263 178.551C114.996 179.069 114.625 179.472 114.15 179.759C113.674 180.047 113.111 180.191 112.461 180.191C111.861 180.191 111.323 180.055 110.847 179.784C110.372 179.513 109.984 179.139 109.684 178.662L106.332 179.476C106.665 180.199 107.124 180.832 107.708 181.375C108.292 181.918 108.975 182.341 109.759 182.645C110.543 182.949 111.427 183.102 112.411 183.102C113.412 183.102 114.325 182.941 115.15 182.621C115.976 182.3 116.689 181.844 117.289 181.252C117.89 180.66 118.352 179.953 118.678 179.131C119.003 178.308 119.166 177.396 119.166 176.393V164.923H115.938L115.863 166.527C115.413 165.885 114.846 165.396 114.162 165.059C113.478 164.722 112.711 164.554 111.861 164.554C110.993 164.554 110.189 164.722 109.446 165.059C108.704 165.396 108.054 165.861 107.495 166.453C106.936 167.045 106.503 167.739 106.194 168.537C105.886 169.334 105.731 170.202 105.731 171.139C105.731 172.043 105.882 172.886 106.182 173.667C106.482 174.448 106.899 175.131 107.433 175.714C107.966 176.298 108.596 176.754 109.321 177.083ZM112.511 174.518C113.128 174.518 113.674 174.366 114.15 174.062C114.625 173.758 115.004 173.347 115.288 172.829C115.571 172.311 115.713 171.723 115.713 171.065C115.713 170.407 115.571 169.819 115.288 169.302C115.004 168.784 114.625 168.372 114.15 168.068C113.674 167.764 113.128 167.612 112.511 167.612C111.894 167.612 111.348 167.764 110.872 168.068C110.397 168.372 110.018 168.784 109.734 169.302C109.451 169.819 109.309 170.407 109.309 171.065C109.309 171.723 109.451 172.311 109.734 172.829C110.018 173.347 110.397 173.758 110.872 174.062C111.348 174.366 111.894 174.518 112.511 174.518ZM125.195 164.923H121.967V177.947H125.47V171.558C125.47 170.49 125.728 169.663 126.245 169.08C126.762 168.496 127.504 168.204 128.472 168.204C128.672 168.204 128.868 168.216 129.06 168.241C129.252 168.266 129.439 168.311 129.623 168.377L129.998 164.973C129.814 164.907 129.606 164.854 129.372 164.812C129.139 164.771 128.905 164.751 128.672 164.751C127.905 164.751 127.238 164.936 126.671 165.306C126.104 165.676 125.653 166.206 125.32 166.897L125.195 164.923Z" fill="white"/>
<g id="Group 9">
<g id="Fill 1" filter="url(#filter0_d)">
<path fill-rule="evenodd" clip-rule="evenodd" d="M165.637 298.725C165.637 306.06 160.222 312.379 152.89 312.379H48.335C41.003 312.379 34.6276 306.06 34.6276 298.725V41.1194C34.6276 33.7847 41.003 28.4224 48.335 28.4224H60.4227C62.9781 28.4224 63.922 28.1301 64.0767 31.3705C64.1575 33.0535 64.7748 34.3619 65.7636 35.4446C66.7517 36.507 68.112 37.3803 69.6755 37.87C70.7361 38.202 71.917 38.5033 73.0433 38.5033H75.3259H126.011H128.294C129.421 38.5033 130.601 38.1332 131.662 37.8012C133.226 37.3115 134.585 36.4943 135.574 35.4513C136.563 34.3881 137.181 33.135 137.261 31.452C137.415 28.2123 138.36 28.4224 140.916 28.4224H152.89C160.222 28.4224 165.637 33.7847 165.637 41.1194V298.725ZM92.481 29.6823H108.857C109.552 29.6823 110.117 30.1137 110.117 30.732C110.117 31.3511 109.552 31.7825 108.857 31.7825H92.481C91.7844 31.7825 91.2216 31.3511 91.2216 30.732C91.2216 30.1137 91.7844 29.6823 92.481 29.6823ZM117.465 30.0441C117.465 31.0587 116.642 31.8819 115.628 31.8819C114.613 31.8819 113.791 31.0587 113.791 30.0441C113.791 29.0295 114.613 28.2064 115.628 28.2064C116.642 28.2064 117.465 29.0295 117.465 30.0441ZM173.615 88.9098V41.9471C173.615 30.0696 163.99 20.441 152.116 20.441H47.6578C35.4109 20.441 25.3898 30.4658 25.3898 42.7179V59.9263C24.6939 59.9263 24.1296 60.4901 24.1296 61.1861V70.0072C24.1296 70.7033 24.6939 71.2678 25.3898 71.2678V81.7688C24.6939 81.7688 24.1296 82.3333 24.1296 83.0294V101.932C24.1296 102.627 24.6939 103.192 25.3898 103.192V109.492C24.6939 109.492 24.1296 110.057 24.1296 110.752V129.655C24.1296 130.351 24.6939 130.915 25.3898 130.915V299.693C25.3898 311.984 35.4416 322.041 47.7273 322.041H152.116C163.94 322.041 173.615 312.362 173.615 300.534V123.774H174.034C174.731 123.774 175.295 123.21 175.295 122.514V90.1704C175.295 89.4743 174.731 88.9098 174.034 88.9098H173.615Z" fill="#1D1D25"/>
</g>
<path id="Fill 5" fill-rule="evenodd" clip-rule="evenodd" d="M108.857 29.682H92.4811C91.7845 29.682 91.2209 30.1142 91.2209 30.7325C91.2209 31.3508 91.7845 31.7822 92.4811 31.7822H108.857C109.552 31.7822 110.117 31.3508 110.117 30.7325C110.117 30.1142 109.552 29.682 108.857 29.682Z" fill="black"/>
<path id="Fill 7" fill-rule="evenodd" clip-rule="evenodd" d="M115.628 28.2064C114.614 28.2064 113.791 29.0296 113.791 30.0442C113.791 31.0588 114.614 31.882 115.628 31.882C116.642 31.882 117.465 31.0588 117.465 30.0442C117.465 29.0296 116.642 28.2064 115.628 28.2064Z" fill="black"/>
</g>
</g>
<g id="Group 26 Copy" clip-path="url(#clip0)">
<rect id="Rectangle_2" x="204.82" y="67.4047" width="141.331" height="293.053" rx="22" fill="url(#paint1_linear)"/>
<rect id="Rectangle_3" x="209.669" y="71.5614" width="131.17" height="287.04" rx="22" fill="white"/>
<path id="Rectangle Copy" d="M209.669 79.5614C209.669 75.1431 213.251 71.5614 217.669 71.5614H332.84C337.258 71.5614 340.84 75.1431 340.84 79.5614V122.322H209.669V79.5614Z" fill="url(#paint2_linear)"/>
<g id="Group 4">
<g id="Rectangle_4" filter="url(#filter1_d)">
<rect x="217.528" y="103.589" width="115.454" height="40.4878" rx="4" fill="white"/>
</g>
<g id="Rectangle Copy 2" filter="url(#filter2_d)">
<rect x="217.528" y="153.746" width="115.454" height="40.4878" rx="4" fill="white"/>
</g>
<g id="Rectangle Copy 3" filter="url(#filter3_d)">
<rect x="217.528" y="203.902" width="115.454" height="40.4878" rx="4" fill="white"/>
</g>
<g id="Rectangle Copy 4" filter="url(#filter4_d)">
<rect x="217.528" y="254.059" width="115.454" height="40.4878" rx="4" fill="white"/>
</g>
<g id="Rectangle Copy 5" filter="url(#filter5_d)">
<rect x="217.528" y="304.215" width="115.454" height="40.4878" rx="4" fill="white"/>
</g>
</g>
<path id="Blogr_2" fill-rule="evenodd" clip-rule="evenodd" d="M252.856 224.529V197.97H257.911V224.529H252.856ZM230.792 224.529V199.252H240.109C241.842 199.252 243.341 199.519 244.605 200.053C245.868 200.587 246.843 201.347 247.529 202.332C248.216 203.317 248.559 204.474 248.559 205.803C248.559 207.013 248.294 208.075 247.764 208.989C247.235 209.903 246.488 210.621 245.525 211.143C246.825 211.642 247.836 212.431 248.559 213.511C249.281 214.591 249.642 215.866 249.642 217.338C249.642 218.809 249.257 220.079 248.486 221.147C247.716 222.215 246.633 223.046 245.236 223.639C243.84 224.233 242.191 224.529 240.289 224.529H230.792ZM235.992 203.631V209.434H239.531C240.711 209.434 241.619 209.191 242.257 208.704C242.895 208.218 243.214 207.5 243.214 206.55C243.214 205.601 242.895 204.877 242.257 204.379C241.619 203.88 240.711 203.631 239.531 203.631H235.992ZM240.037 220.15H235.992V213.528H240.037C241.385 213.528 242.426 213.813 243.16 214.383C243.894 214.953 244.261 215.771 244.261 216.839C244.261 217.908 243.894 218.726 243.16 219.296C242.426 219.866 241.385 220.15 240.037 220.15ZM267.191 224.316C268.395 224.814 269.707 225.064 271.127 225.064C272.572 225.064 273.902 224.814 275.117 224.316C276.333 223.817 277.392 223.117 278.295 222.215C279.198 221.313 279.902 220.257 280.408 219.047C280.913 217.836 281.166 216.519 281.166 215.095C281.166 213.671 280.919 212.36 280.426 211.161C279.932 209.962 279.24 208.918 278.349 208.028C277.459 207.138 276.411 206.444 275.208 205.945C274.004 205.447 272.692 205.198 271.272 205.198C269.827 205.198 268.497 205.447 267.282 205.945C266.066 206.444 265.007 207.144 264.104 208.046C263.201 208.948 262.497 209.998 261.991 211.197C261.486 212.395 261.233 213.706 261.233 215.131C261.233 216.555 261.48 217.872 261.973 219.082C262.467 220.293 263.159 221.343 264.05 222.233C264.94 223.123 265.988 223.817 267.191 224.316ZM271.2 220.578C272.114 220.578 272.933 220.34 273.655 219.866C274.377 219.391 274.949 218.744 275.37 217.925C275.792 217.106 276.002 216.175 276.002 215.131C276.002 214.086 275.792 213.155 275.37 212.336C274.949 211.517 274.377 210.87 273.655 210.395C272.933 209.921 272.114 209.683 271.2 209.683C270.285 209.683 269.466 209.921 268.744 210.395C268.022 210.87 267.45 211.517 267.029 212.336C266.608 213.155 266.397 214.086 266.397 215.131C266.397 216.175 266.608 217.106 267.029 217.925C267.45 218.744 268.022 219.391 268.744 219.866C269.466 220.34 270.285 220.578 271.2 220.578ZM288.948 223.283C289.995 223.758 291.12 223.995 292.324 223.995C293.528 223.995 294.629 223.752 295.628 223.266C296.627 222.779 297.451 222.109 298.101 221.254V222.785C298.101 223.782 297.909 224.654 297.524 225.402C297.139 226.149 296.603 226.731 295.917 227.146C295.231 227.562 294.418 227.769 293.479 227.769C292.613 227.769 291.836 227.573 291.15 227.182C290.464 226.79 289.905 226.25 289.471 225.562L284.632 226.737C285.114 227.781 285.776 228.695 286.618 229.478C287.461 230.261 288.448 230.873 289.58 231.312C290.711 231.751 291.987 231.97 293.407 231.97C294.852 231.97 296.17 231.739 297.361 231.276C298.553 230.813 299.582 230.155 300.449 229.3C301.315 228.446 301.983 227.425 302.453 226.238C302.922 225.052 303.157 223.734 303.157 222.287V205.732H298.499L298.39 208.046C297.74 207.12 296.922 206.414 295.935 205.927C294.948 205.441 293.84 205.198 292.613 205.198C291.361 205.198 290.199 205.441 289.128 205.927C288.057 206.414 287.118 207.084 286.312 207.939C285.505 208.793 284.879 209.796 284.434 210.947C283.988 212.098 283.766 213.35 283.766 214.703C283.766 216.009 283.982 217.225 284.416 218.353C284.849 219.48 285.451 220.465 286.221 221.308C286.992 222.15 287.9 222.809 288.948 223.283ZM293.552 219.581C294.442 219.581 295.231 219.361 295.917 218.922C296.603 218.483 297.151 217.89 297.56 217.142C297.969 216.394 298.174 215.546 298.174 214.597C298.174 213.647 297.969 212.799 297.56 212.051C297.151 211.303 296.603 210.71 295.917 210.271C295.231 209.832 294.442 209.612 293.552 209.612C292.661 209.612 291.873 209.832 291.186 210.271C290.5 210.71 289.953 211.303 289.543 212.051C289.134 212.799 288.93 213.647 288.93 214.597C288.93 215.546 289.134 216.394 289.543 217.142C289.953 217.89 290.5 218.483 291.186 218.922C291.873 219.361 292.661 219.581 293.552 219.581ZM311.859 205.732H307.201V224.529H312.257V215.309C312.257 213.766 312.63 212.573 313.376 211.731C314.122 210.888 315.194 210.467 316.59 210.467C316.879 210.467 317.162 210.484 317.438 210.52C317.715 210.556 317.986 210.621 318.251 210.716L318.792 205.803C318.528 205.708 318.227 205.631 317.89 205.571C317.553 205.512 317.216 205.482 316.879 205.482C315.771 205.482 314.808 205.749 313.99 206.283C313.171 206.817 312.521 207.583 312.04 208.58L311.859 205.732Z" fill="white"/>
<g id="Group 9_2">
<g id="Fill 1_2" filter="url(#filter6_d)">
<path fill-rule="evenodd" clip-rule="evenodd" d="M340.914 342.371C340.914 349.706 335.5 356.025 328.168 356.025H223.613C216.281 356.025 209.905 349.706 209.905 342.371V84.7656C209.905 77.431 216.281 72.0687 223.613 72.0687H235.7C238.256 72.0687 239.2 71.7763 239.354 75.0167C239.435 76.6998 240.052 78.0082 241.041 79.0908C242.029 80.1532 243.39 81.0265 244.953 81.5163C246.014 81.8482 247.195 82.1495 248.321 82.1495H250.603H301.288H303.572C304.698 82.1495 305.879 81.7794 306.94 81.4475C308.504 80.9577 309.863 80.1405 310.851 79.0975C311.841 78.0343 312.458 76.7812 312.538 75.0982C312.692 71.8586 313.638 72.0687 316.193 72.0687H328.168C335.5 72.0687 340.914 77.431 340.914 84.7656V342.371ZM267.759 73.3285H284.134C284.83 73.3285 285.394 73.7599 285.394 74.3782C285.394 74.9973 284.83 75.4287 284.134 75.4287H267.759C267.062 75.4287 266.499 74.9973 266.499 74.3782C266.499 73.7599 267.062 73.3285 267.759 73.3285ZM292.743 73.6904C292.743 74.705 291.92 75.5282 290.906 75.5282C289.891 75.5282 289.068 74.705 289.068 73.6904C289.068 72.6758 289.891 71.8526 290.906 71.8526C291.92 71.8526 292.743 72.6758 292.743 73.6904ZM348.893 132.556V85.5933C348.893 73.7158 339.268 64.0873 327.394 64.0873H222.935C210.689 64.0873 200.667 74.1121 200.667 86.3642V103.573C199.972 103.573 199.407 104.136 199.407 104.832V113.653C199.407 114.35 199.972 114.914 200.667 114.914V125.415C199.972 125.415 199.407 125.98 199.407 126.676V145.578C199.407 146.274 199.972 146.838 200.667 146.838V153.139C199.972 153.139 199.407 153.703 199.407 154.399V173.301C199.407 173.997 199.972 174.562 200.667 174.562V343.34C200.667 355.63 210.719 365.687 223.005 365.687H327.394C339.218 365.687 348.893 356.008 348.893 344.18V167.421H349.312C350.009 167.421 350.572 166.856 350.572 166.16V133.817C350.572 133.121 350.009 132.556 349.312 132.556H348.893Z" fill="#1D1D25"/>
</g>
<path id="Fill 5_2" fill-rule="evenodd" clip-rule="evenodd" d="M284.134 73.3282H267.759C267.062 73.3282 266.499 73.7604 266.499 74.3787C266.499 74.9971 267.062 75.4285 267.759 75.4285H284.134C284.83 75.4285 285.394 74.9971 285.394 74.3787C285.394 73.7604 284.83 73.3282 284.134 73.3282Z" fill="black"/>
<path id="Fill 7_2" fill-rule="evenodd" clip-rule="evenodd" d="M290.905 71.8527C289.891 71.8527 289.068 72.6758 289.068 73.6904C289.068 74.705 289.891 75.5282 290.905 75.5282C291.92 75.5282 292.743 74.705 292.743 73.6904C292.743 72.6758 291.92 71.8527 290.905 71.8527Z" fill="black"/>
</g>
</g>
</g>
<defs>
<filter id="filter0_d" x="-15.8704" y="0.44104" width="231.165" height="381.6" filterUnits="userSpaceOnUse" color-interpolation-filters="sRGB">
<feFlood flood-opacity="0" result="BackgroundImageFix"/>
<feColorMatrix in="SourceAlpha" type="matrix" values="0 0 0 0 0 0 0 0 0 0 0 0 0 0 0 0 0 0 127 0"/>
<feOffset dy="20"/>
<feGaussianBlur stdDeviation="20"/>
<feColorMatrix type="matrix" values="0 0 0 0 0.421822 0 0 0 0 0.554338 0 0 0 0 0.89371 0 0 0 0.243444 0"/>
<feBlend mode="normal" in2="BackgroundImageFix" result="effect1_dropShadow"/>
<feBlend mode="normal" in="SourceGraphic" in2="effect1_dropShadow" result="shape"/>
</filter>
<filter id="filter1_d" x="197.528" y="93.5891" width="155.454" height="80.4878" filterUnits="userSpaceOnUse" color-interpolation-filters="sRGB">
<feFlood flood-opacity="0" result="BackgroundImageFix"/>
<feColorMatrix in="SourceAlpha" type="matrix" values="0 0 0 0 0 0 0 0 0 0 0 0 0 0 0 0 0 0 127 0"/>
<feOffset dy="10"/>
<feGaussianBlur stdDeviation="10"/>
<feColorMatrix type="matrix" values="0 0 0 0 0.421822 0 0 0 0 0.554338 0 0 0 0 0.89371 0 0 0 0.243444 0"/>
<feBlend mode="normal" in2="BackgroundImageFix" result="effect1_dropShadow"/>
<feBlend mode="normal" in="SourceGraphic" in2="effect1_dropShadow" result="shape"/>
</filter>
<filter id="filter2_d" x="197.528" y="143.746" width="155.454" height="80.4878" filterUnits="userSpaceOnUse" color-interpolation-filters="sRGB">
<feFlood flood-opacity="0" result="BackgroundImageFix"/>
<feColorMatrix in="SourceAlpha" type="matrix" values="0 0 0 0 0 0 0 0 0 0 0 0 0 0 0 0 0 0 127 0"/>
<feOffset dy="10"/>
<feGaussianBlur stdDeviation="10"/>
<feColorMatrix type="matrix" values="0 0 0 0 0.421822 0 0 0 0 0.554338 0 0 0 0 0.89371 0 0 0 0.243444 0"/>
<feBlend mode="normal" in2="BackgroundImageFix" result="effect1_dropShadow"/>
<feBlend mode="normal" in="SourceGraphic" in2="effect1_dropShadow" result="shape"/>
</filter>
<filter id="filter3_d" x="197.528" y="193.902" width="155.454" height="80.4878" filterUnits="userSpaceOnUse" color-interpolation-filters="sRGB">
<feFlood flood-opacity="0" result="BackgroundImageFix"/>
<feColorMatrix in="SourceAlpha" type="matrix" values="0 0 0 0 0 0 0 0 0 0 0 0 0 0 0 0 0 0 127 0"/>
<feOffset dy="10"/>
<feGaussianBlur stdDeviation="10"/>
<feColorMatrix type="matrix" values="0 0 0 0 0.421822 0 0 0 0 0.554338 0 0 0 0 0.89371 0 0 0 0.243444 0"/>
<feBlend mode="normal" in2="BackgroundImageFix" result="effect1_dropShadow"/>
<feBlend mode="normal" in="SourceGraphic" in2="effect1_dropShadow" result="shape"/>
</filter>
<filter id="filter4_d" x="197.528" y="244.059" width="155.454" height="80.4878" filterUnits="userSpaceOnUse" color-interpolation-filters="sRGB">
<feFlood flood-opacity="0" result="BackgroundImageFix"/>
<feColorMatrix in="SourceAlpha" type="matrix" values="0 0 0 0 0 0 0 0 0 0 0 0 0 0 0 0 0 0 127 0"/>
<feOffset dy="10"/>
<feGaussianBlur stdDeviation="10"/>
<feColorMatrix type="matrix" values="0 0 0 0 0.421822 0 0 0 0 0.554338 0 0 0 0 0.89371 0 0 0 0.243444 0"/>
<feBlend mode="normal" in2="BackgroundImageFix" result="effect1_dropShadow"/>
<feBlend mode="normal" in="SourceGraphic" in2="effect1_dropShadow" result="shape"/>
</filter>
<filter id="filter5_d" x="197.528" y="294.215" width="155.454" height="80.4878" filterUnits="userSpaceOnUse" color-interpolation-filters="sRGB">
<feFlood flood-opacity="0" result="BackgroundImageFix"/>
<feColorMatrix in="SourceAlpha" type="matrix" values="0 0 0 0 0 0 0 0 0 0 0 0 0 0 0 0 0 0 127 0"/>
<feOffset dy="10"/>
<feGaussianBlur stdDeviation="10"/>
<feColorMatrix type="matrix" values="0 0 0 0 0.421822 0 0 0 0 0.554338 0 0 0 0 0.89371 0 0 0 0.243444 0"/>
<feBlend mode="normal" in2="BackgroundImageFix" result="effect1_dropShadow"/>
<feBlend mode="normal" in="SourceGraphic" in2="effect1_dropShadow" result="shape"/>
</filter>
<filter id="filter6_d" x="159.407" y="44.0873" width="231.165" height="381.6" filterUnits="userSpaceOnUse" color-interpolation-filters="sRGB">
<feFlood flood-opacity="0" result="BackgroundImageFix"/>
<feColorMatrix in="SourceAlpha" type="matrix" values="0 0 0 0 0 0 0 0 0 0 0 0 0 0 0 0 0 0 127 0"/>
<feOffset dy="20"/>
<feGaussianBlur stdDeviation="20"/>
<feColorMatrix type="matrix" values="0 0 0 0 0.421822 0 0 0 0 0.554338 0 0 0 0 0.89371 0 0 0 0.243444 0"/>
<feBlend mode="normal" in2="BackgroundImageFix" result="effect1_dropShadow"/>
<feBlend mode="normal" in="SourceGraphic" in2="effect1_dropShadow" result="shape"/>
</filter>
<linearGradient id="paint0_linear" x1="-41.1228" y1="170.285" x2="188.201" y2="280.881" gradientUnits="userSpaceOnUse">
<stop stop-color="#FF8F71"/>
<stop offset="1" stop-color="#FF3E55"/>
</linearGradient>
<linearGradient id="paint1_linear" x1="134.155" y1="213.931" x2="363.479" y2="324.527" gradientUnits="userSpaceOnUse">
<stop stop-color="#FF8F71"/>
<stop offset="1" stop-color="#FF3E55"/>
</linearGradient>
<linearGradient id="paint2_linear" x1="144.084" y1="96.9418" x2="178.254" y2="185.24" gradientUnits="userSpaceOnUse">
<stop stop-color="#FF8F71"/>
<stop offset="1" stop-color="#FF3E55"/>
</linearGradient>
<clipPath id="clip0">
<rect width="152" height="303" fill="white" transform="translate(199.278 63.9407)"/>
</clipPath>
</defs>
</svg>
